<svg width="200" height="200" viewBox="0 0 200 200" fill="none" xmlns="http://www.w3.org/2000/svg">
  <!-- Dark theme version with gradient -->
  <defs>
    <linearGradient id="gradient" x1="0%" y1="0%" x2="100%" y2="100%">
      <stop offset="0%" style="stop-color:#818CF8;stop-opacity:1" />
      <stop offset="100%" style="stop-color:#4F46E5;stop-opacity:1" />
    </linearGradient>
  </defs>
  
  <!-- Background -->
  <rect width="200" height="200" fill="#0a0a0a"/>
  
  <!-- Ultra-thin P with gradient -->
  <g>
    <path d="M 50 40 L 50 160 M 50 40 L 110 40 C 140 40 160 60 160 90 C 160 120 140 140 110 140 L 50 140" 
          stroke="url(#gradient)" stroke-width="2" stroke-linecap="round" stroke-linejoin="round" fill="none"/>
    
    <!-- Glowing nodes -->
    <circle cx="50" cy="40" r="3" fill="#818CF8">
      <animate attributeName="opacity" values="0.5;1;0.5" dur="2s" repeatCount="indefinite" />
    </circle>
    <circle cx="110" cy="40" r="3" fill="#818CF8">
      <animate attributeName="opacity" values="0.5;1;0.5" dur="2s" begin="0.3s" repeatCount="indefinite" />
    </circle>
    <circle cx="160" cy="90" r="3" fill="#818CF8">
      <animate attributeName="opacity" values="0.5;1;0.5" dur="2s" begin="0.6s" repeatCount="indefinite" />
    </circle>
    <circle cx="110" cy="140" r="3" fill="#818CF8">
      <animate attributeName="opacity" values="0.5;1;0.5" dur="2s" begin="0.9s" repeatCount="indefinite" />
    </circle>
    <circle cx="50" cy="140" r="3" fill="#818CF8">
      <animate attributeName="opacity" values="0.5;1;0.5" dur="2s" begin="1.2s" repeatCount="indefinite" />
    </circle>
    <circle cx="50" cy="160" r="3" fill="#818CF8">
      <animate attributeName="opacity" values="0.5;1;0.5" dur="2s" begin="1.5s" repeatCount="indefinite" />
    </circle>
    
    <!-- Neural connections -->
    <line x1="50" y1="40" x2="110" y2="40" stroke="#818CF8" stroke-width="0.5" opacity="0.3"/>
    <line x1="110" y1="40" x2="160" y2="90" stroke="#818CF8" stroke-width="0.5" opacity="0.3"/>
    <line x1="160" y1="90" x2="110" y2="140" stroke="#818CF8" stroke-width="0.5" opacity="0.3"/>
    <line x1="110" y1="140" x2="50" y2="140" stroke="#818CF8" stroke-width="0.5" opacity="0.3"/>
  </g>
</svg>